HIERARCHY
ROOT joint_Root
{
	OFFSET 0.0 0.0 0.0
	CHANNELS 6 Xposition Yposition Zposition Zrotation Xrotation Yrotation 
	JOINT Hips
	{
		OFFSET 4.5925 91.4895 -427.239
		CHANNELS 6 Xposition Yposition Zposition Zrotation Xrotation Yrotation 
		JOINT Spine
		{
			OFFSET 15.7357 0.0 0.0
			CHANNELS 6 Xposition Yposition Zposition Zrotation Xrotation Yrotation 
			JOINT Chest
			{
				OFFSET 8.98455 -0.406207 0.0
				CHANNELS 6 Xposition Yposition Zposition Zrotation Xrotation Yrotation 
				JOINT Neck
				{
					OFFSET 16.3773 0.0 0.0
					CHANNELS 6 Xposition Yposition Zposition Zrotation Xrotation Yrotation 
					JOINT Head
					{
						OFFSET 6.45672 0.0 0.0
						CHANNELS 6 Xposition Yposition Zposition Zrotation Xrotation Yrotation 
						End Site
						{
							OFFSET 0.0 0.0 0.0
						}
					}
				}
				JOINT Shoulder_L
				{
					OFFSET 12.9942 -0.242716 4.98039
					CHANNELS 6 Xposition Yposition Zposition Zrotation Xrotation Yrotation 
					JOINT UpperArm_L
					{
						OFFSET 5.34809 0.0 0.0
						CHANNELS 6 Xposition Yposition Zposition Zrotation Xrotation Yrotation 
						JOINT LowerArm_L
						{
							OFFSET 24.3286 1.87007e-05 0.0
							CHANNELS 6 Xposition Yposition Zposition Zrotation Xrotation Yrotation 
							JOINT Hand_L
							{
								OFFSET 22.2916 0.0 0.0
								CHANNELS 6 Xposition Yposition Zposition Zrotation Xrotation Yrotation 
								End Site
								{
									OFFSET 0.0 0.0 0.0
								}
							}
						}
					}
				}
				JOINT Shoulder_R
				{
					OFFSET 12.9945 -0.242716 -4.98039
					CHANNELS 6 Xposition Yposition Zposition Zrotation Xrotation Yrotation 
					JOINT UpperArm_R
					{
						OFFSET -5.34813 0.0 0.0
						CHANNELS 6 Xposition Yposition Zposition Zrotation Xrotation Yrotation 
						JOINT LowerArm_R
						{
							OFFSET -24.3289 0.000322201 0.0
							CHANNELS 6 Xposition Yposition Zposition Zrotation Xrotation Yrotation 
							JOINT Hand_R
							{
								OFFSET -22.2915 -0.000108084 0.0
								CHANNELS 6 Xposition Yposition Zposition Zrotation Xrotation Yrotation 
								End Site
								{
									OFFSET 0.0 0.0 0.0
								}
							}
						}
					}
				}
			}
		}
		JOINT UpperLeg_L
		{
			OFFSET -2.19248 -6.46944 0.0
			CHANNELS 6 Xposition Yposition Zposition Zrotation Xrotation Yrotation 
			JOINT LowerLeg_L
			{
				OFFSET 39.0811 0.0 -1.23785e-05
				CHANNELS 6 Xposition Yposition Zposition Zrotation Xrotation Yrotation 
				JOINT Foot_L
				{
					OFFSET 40.9854 0.0 -1.26872e-05
					CHANNELS 6 Xposition Yposition Zposition Zrotation Xrotation Yrotation 
					JOINT Toes_L
					{
						OFFSET 11.7543 0.0 0.0
						CHANNELS 6 Xposition Yposition Zposition Zrotation Xrotation Yrotation 
						End Site
						{
							OFFSET 0.0 0.0 0.0
						}
					}
				}
			}
		}
		JOINT UpperLeg_R
		{
			OFFSET -2.19251 6.46944 0.0
			CHANNELS 6 Xposition Yposition Zposition Zrotation Xrotation Yrotation 
			JOINT LowerLeg_R
			{
				OFFSET -39.0811 -0.00228153 -0.0401928
				CHANNELS 6 Xposition Yposition Zposition Zrotation Xrotation Yrotation 
				JOINT Foot_R
				{
					OFFSET -40.9854 0.0 0.0
					CHANNELS 6 Xposition Yposition Zposition Zrotation Xrotation Yrotation 
					JOINT Toes_R
					{
						OFFSET -11.7543 0.0 0.0
						CHANNELS 6 Xposition Yposition Zposition Zrotation Xrotation Yrotation 
						End Site
						{
							OFFSET 0.0 0.0 0.0
						}
					}
				}
			}
		}
	}
}
MOTION
Frames:	6
Frame Time:	0.0333333
0.000000 0.000000 0.000000 0.000000 0.000000 -0.000000 -189.446000 89.517900 193.859000 60.367100 84.007100 28.639700 15.735700 0.000005 -0.000001 67.680300 81.947800 -68.211100 8.984550 -0.406207 -0.000000 7.134410 -6.091490 -0.681088 16.377300 -0.000001 -0.000001 -0.291907 -1.605440 -0.744734 6.456720 -0.000001 -0.000000 -1.918220 1.779520 1.482260 12.994200 -0.242716 4.980390 -89.110400 -2.497820 -70.388900 5.348090 -0.000007 -0.000001 -49.520700 33.921200 -51.980600 24.328600 0.000019 0.000005 1.942790 -0.718851 -110.307000 22.291600 -0.000001 0.000005 9.383680 5.564000 -9.382270 12.994500 -0.242716 -4.980390 89.450500 1.856390 -73.504700 -5.348130 -0.000001 -0.000004 -64.752100 41.984500 31.146700 -24.328900 0.000322 -0.000009 -13.032200 -2.470850 -79.447300 -22.291500 -0.000108 -0.000004 11.474200 5.613680 -12.196400 -2.192480 -6.469440 -0.000000 -176.674000 -11.902300 -9.853940 39.081100 -0.000007 -0.000012 -0.254736 0.355483 35.625500 40.985400 -0.000006 -0.000013 1.495910 1.887550 -76.991000 11.754300 -0.000000 0.000003 -0.000024 -0.000300 -16.589300 -2.192510 6.469440 -0.000001 179.301000 5.654740 151.503000 -39.081100 -0.002282 -0.040193 0.148002 -0.026818 79.529800 -40.985400 0.000008 0.000006 3.449380 -0.172441 -39.605000 -11.754300 -0.000006 -0.000006 -0.020302 -0.168958 -23.476600
0.000000 0.000000 0.000000 0.000000 0.000000 -0.000000 -185.549000 91.073700 194.680000 42.518700 83.588300 44.837600 15.735700 0.000005 -0.000001 62.335700 82.081200 -61.899100 8.984550 -0.406207 -0.000000 6.329330 -7.337550 1.279220 16.377300 -0.000001 -0.000001 0.078510 -1.558180 -0.504464 6.456720 -0.000001 -0.000000 -2.424180 2.693230 0.626745 12.994200 -0.242716 4.980390 -88.441300 -4.280900 -69.971600 5.348090 -0.000007 -0.000001 -48.075300 31.337000 -57.657300 24.328600 0.000019 0.000005 1.297310 -0.563845 -113.493000 22.291600 -0.000001 0.000005 8.550120 5.547180 -8.572490 12.994500 -0.242716 -4.980390 90.302300 -0.977135 -72.811900 -5.348130 -0.000001 -0.000004 -65.514700 41.450100 33.607300 -24.328900 0.000322 -0.000009 -11.619200 -1.254430 -83.923600 -22.291500 -0.000108 -0.000004 11.141700 5.607570 -11.804400 -2.192480 -6.469440 -0.000000 -175.024000 -10.085300 -4.165850 39.081100 -0.000007 -0.000012 0.030538 -0.061951 26.240100 40.985400 -0.000006 -0.000013 4.026650 -0.260380 -74.077100 11.754300 -0.000000 0.000003 -0.264914 -0.330840 -17.284000 -2.192510 6.469440 -0.000001 -177.126000 4.507690 145.364000 -39.081100 -0.002282 -0.040193 0.077861 -0.019907 75.103600 -40.985400 0.000008 0.000006 3.991790 -3.980630 -45.386200 -11.754300 -0.000006 -0.000006 -0.020755 -0.171437 -23.578800
0.000000 0.000000 0.000000 0.000000 0.000000 -0.000000 -181.712000 91.924900 195.364000 32.689600 83.279300 52.758700 15.735700 0.000005 -0.000001 57.886400 82.395200 -56.693300 8.984550 -0.406207 -0.000000 5.243510 -8.094530 2.757680 16.377300 -0.000001 -0.000001 0.642948 -1.435690 -0.264860 6.456720 -0.000001 -0.000000 -2.970540 3.016950 0.402266 12.994200 -0.242716 4.980390 -87.841300 -5.840860 -69.675300 5.348090 -0.000007 -0.000001 -48.049400 29.523400 -61.102400 24.328600 0.000019 0.000005 -0.181396 0.086241 -115.368000 22.291600 -0.000001 0.000005 8.020480 5.538960 -8.195180 12.994500 -0.242716 -4.980390 91.062000 -3.350070 -72.400000 -5.348130 -0.000001 -0.000004 -66.418800 40.010500 34.971500 -24.328900 0.000322 -0.000009 -10.482900 -0.389604 -87.894200 -22.291500 -0.000108 -0.000004 11.057700 5.600850 -11.393700 -2.192480 -6.469440 -0.000000 -173.446000 -12.111800 -0.622209 39.081100 -0.000007 -0.000012 0.011556 -0.031856 19.939000 40.985400 -0.000006 -0.000013 3.873800 1.485640 -69.631800 11.754300 -0.000000 0.000003 -1.460990 -1.701930 -20.094000 -2.192510 6.469440 -0.000001 -175.023000 4.392540 140.693000 -39.081100 -0.002282 -0.040193 0.043989 -0.017275 67.073500 -40.985400 0.000008 0.000006 3.943630 -5.704280 -50.411100 -11.754300 -0.000006 -0.000006 -0.021546 -0.175704 -23.754700
0.000000 0.000000 0.000000 0.000000 0.000000 -0.000000 -177.803000 91.782500 195.886000 29.230900 83.768800 55.326400 15.735700 0.000005 -0.000001 54.409600 82.484000 -52.919700 8.984550 -0.406207 -0.000000 4.617960 -8.774150 3.335430 16.377300 -0.000001 -0.000001 1.275180 -1.250590 0.124555 6.456720 -0.000001 -0.000000 -3.437130 2.988130 0.908715 12.994200 -0.242716 4.980390 -87.283700 -7.235070 -69.357600 5.348090 -0.000007 -0.000001 -48.468000 28.637000 -63.248400 24.328600 0.000019 0.000005 -0.560490 0.275747 -116.190000 22.291600 -0.000001 0.000005 8.564700 5.529790 -7.786870 12.994500 -0.242716 -4.980390 91.542500 -4.888590 -72.464100 -5.348130 -0.000001 -0.000004 -67.199000 38.710500 35.074700 -24.328900 0.000322 -0.000009 -10.648700 0.183370 -90.973600 -22.291500 -0.000108 -0.000004 11.576600 5.597210 -11.176900 -2.192480 -6.469440 -0.000000 -171.792000 -18.074300 2.612400 39.081100 -0.000007 -0.000012 -0.014151 0.045783 17.175500 40.985400 -0.000006 -0.000013 3.276790 7.452650 -67.530800 11.754300 -0.000000 0.000003 -1.979120 -2.127300 -23.338300 -2.192510 6.469440 -0.000001 -174.298000 5.725810 138.637000 -39.081100 -0.002282 -0.040193 0.033270 -0.020120 56.194600 -40.985400 0.000008 0.000006 2.953070 -4.635130 -54.669500 -11.754300 -0.000006 -0.000006 -0.021834 -0.177242 -23.818100
0.000000 0.000000 0.000000 0.000000 0.000000 -0.000000 -173.782000 90.599900 196.443000 17.469200 85.299400 67.006900 15.735700 0.000005 -0.000001 51.157600 82.211000 -49.645800 8.984550 -0.406207 -0.000000 4.552770 -9.796030 3.416410 16.377300 -0.000001 -0.000001 1.236170 -1.381000 0.655856 6.456720 -0.000001 -0.000000 -3.737190 2.651850 2.052100 12.994200 -0.242716 4.980390 -87.005600 -7.968590 -69.326500 5.348090 -0.000007 -0.000001 -48.855300 28.595800 -64.321300 24.328600 0.000019 0.000005 -0.738452 0.365308 -116.316000 22.291600 -0.000001 0.000005 8.563460 5.524110 -7.538330 12.994500 -0.242716 -4.980390 91.445100 -4.607860 -72.566400 -5.348130 -0.000001 -0.000004 -66.777900 37.278200 33.874800 -24.328900 0.000322 -0.000009 -11.128400 0.622732 -93.160900 -22.291500 -0.000108 -0.000004 12.395300 5.594320 -11.008600 -2.192480 -6.469440 -0.000000 -171.114000 -17.635300 4.367390 39.081100 -0.000007 -0.000012 -0.035231 0.102530 18.963400 40.985400 -0.000006 -0.000013 2.470720 9.215120 -68.936100 11.754300 -0.000000 0.000003 -1.944180 -2.048600 -25.684100 -2.192510 6.469440 -0.000001 -173.663000 9.755080 138.345000 -39.081100 -0.002282 -0.040193 0.023824 -0.021501 43.713700 -40.985400 0.000008 0.000006 0.521438 -0.124170 -57.071600 -11.754300 -0.000006 -0.000006 -0.022590 -0.181232 -23.982800
0.000000 0.000000 0.000000 0.000000 0.000000 -0.000000 -169.429000 88.958500 197.134000 -22.782900 86.739500 108.218000 15.735700 0.000005 -0.000001 50.280500 81.564200 -48.925300 8.984550 -0.406207 -0.000000 5.416640 -10.785500 3.225140 16.377300 -0.000001 -0.000001 0.303056 -2.133200 1.216180 6.456720 -0.000001 -0.000000 -4.356880 1.983370 3.414360 12.994200 -0.242716 4.980390 -87.342600 -7.447520 -70.299200 5.348090 -0.000007 -0.000001 -48.862500 29.890300 -63.881300 24.328600 0.000019 0.000005 -0.569835 0.273016 -115.589000 22.291600 -0.000001 0.000005 8.449480 5.530210 -7.804740 12.994500 -0.242716 -4.980390 90.692800 -2.194480 -72.471800 -5.348130 -0.000001 -0.000004 -65.209400 34.950900 31.131800 -24.328900 0.000322 -0.000009 -11.799000 0.668761 -93.197300 -22.291500 -0.000108 -0.000004 13.548900 5.597700 -11.203800 -2.192480 -6.469440 -0.000000 -170.933000 -13.405900 6.009170 39.081100 -0.000007 -0.000012 -0.061890 0.147309 22.789300 40.985400 -0.000006 -0.000013 1.384080 9.451220 -70.899500 11.754300 -0.000000 0.000003 -1.469280 -1.523760 -27.548900 -2.192510 6.469440 -0.000001 -173.307000 15.581200 139.205000 -39.081100 -0.002282 -0.040193 -0.008257 0.017623 33.244700 -40.985400 0.000008 0.000006 -5.402760 6.332320 -57.063000 -11.754300 -0.000006 -0.000006 -0.023533 -0.186125 -24.184800
